 <svg width="0" height="0" class="hidden">
    <symbol xmlns="http://www.w3.org/2000/svg" viewBox="0 0 24 24" aria-hidden="true"
        id="sun">
        <path
            d="M6.995 12c0 2.761 2.246 5.007 5.007 5.007s5.007-2.246 5.007-5.007-2.246-5.007-5.007-5.007S6.995 9.239 6.995 12zM11 19h2v3h-2zm0-17h2v3h-2zm-9 9h3v2H2zm17 0h3v2h-3zM5.637 19.778l-1.414-1.414 2.121-2.121 1.414 1.414zM16.242 6.344l2.122-2.122 1.414 1.414-2.122 2.122zM6.344 7.759 4.223 5.637l1.415-1.414 2.12 2.122zm13.434 10.605-1.414 1.414-2.122-2.122 1.414-1.414z">
        </path>
    </symbol>
    <symbol xmlns="http://www.w3.org/2000/svg" viewBox="0 0 24 24" aria-hidden="true"
        id="moon">
        <path
            d="M12 11.807A9.002 9.002 0 0 1 10.049 2a9.942 9.942 0 0 0-5.12 2.735c-3.905 3.905-3.905 10.237 0 14.142 3.906 3.906 10.237 3.905 14.143 0a9.946 9.946 0 0 0 2.735-5.119A9.003 9.003 0 0 1 12 11.807z">
        </path>
    </symbol>
    <symbol xmlns="http://www.w3.org/2000/svg" viewBox="0 0 24 24"  aria-hidden="true" 
        id="icon-logo">
        <path 
             d="m7.375 16.781 1.25-1.562L4.601 12l4.024-3.219-1.25-1.562-5 4a1 1 0 0 0 0 1.562l5 4zm9.25-9.562-1.25 1.562L19.399 12l-4.024 3.219 1.25 1.562 5-4a1 1 0 0 0 0-1.562l-5-4zm-1.649-4.003-4 18-1.953-.434 4-18z">
        </path>
    </symbol>
 </svg>
